<?xml version="1.0" encoding="UTF-8"?>
<svg fill="#f8b90d" stroke="#f8b90d" stroke-width=".00024" data-name="Layer 1" version="1.1" viewBox="-2.4 -2.4 28.8 28.8" xmlns="http://www.w3.org/2000/svg">
<g fill="none" stroke-width="0" style="mix-blend-mode:difference">
<path d="m12-2.4a14.4 14.4 0 0 0-14.4 14.4 14.4 14.4 0 0 0 14.4 14.4 14.4 14.4 0 0 0 14.4-14.4 14.4 14.4 0 0 0-14.4-14.4zm0.252 6.066c1.9621 0.048446 3.9482 0.80269 5.5755 2.4232 5.2074 5.1858 1.5718 14.081-5.778 14.132-1.3835-0.0071-2.7424-0.36393-3.951-1.0372l-4.3785 1.152 1.152-4.2862c-0.74291-1.2482-1.1405-2.6695-1.152-4.122 0.0142-5.0531 4.2154-8.3686 8.532-8.262zm-0.20251 1.4288c-5.3631 0.061372-8.6168 5.9431-5.8185 10.519l0.162 0.2655-0.69075 2.5222 2.6257-0.71324 0.25425 0.1485c1.0478 0.61719 2.2399 0.94715 3.456 0.95625 3.8174 0 6.912-3.0946 6.912-6.912 0-3.8174-2.8831-6.7702-6.7005-6.7702zm-2.925 3.0127h0.324c0.12672 0 0.29772-0.00156 0.459 0.3555 0.16128 0.35712 0.58815 1.4286 0.64575 1.5323 0.05741 0.11211 0.05741 0.24564 0 0.35775-0.05092 0.12518-0.1205 0.24266-0.207 0.3465-0.10368 0.12672-0.21834 0.27684-0.3105 0.369s-0.20745 0.20665-0.092259 0.41401c0.31344 0.52898 0.70142 1.0103 1.152 1.4287 0.49067 0.43356 1.051 0.77876 1.6583 1.0238 0.20736 0.10368 0.3348 0.09216 0.45 0 0.1152-0.09216 0.51876-0.59815 0.657-0.80551 0.13824-0.20736 0.27468-0.17262 0.459-0.1035 0.18432 0.06912 1.2101 0.56457 1.4175 0.66825 0.20736 0.10368 0.3339 0.14859 0.3915 0.24075 0.04998 0.3015 0.02182 0.61221-0.08104 0.9v0.03372c-0.30512 0.50896-0.81047 0.86432-1.3927 0.97875-0.43023 0.07864-0.87442 0.05287-1.2915-0.07878-0.39242-0.12267-0.77712-0.26984-1.152-0.43873-1.4241-0.71459-2.6371-1.7854-3.5235-3.1095-0.48166-0.61347-0.77446-1.3559-0.8415-2.133-0.01387-0.65282 0.24865-1.2809 0.7245-1.728 0.14016-0.15891 0.34162-0.24958 0.5535-0.252z" fill="#fff" stroke-width="0" style="mix-blend-mode:exclusion"/>
</g>
</svg>
