<?xml version="1.0" encoding="UTF-8"?>
<svg width="64px" height="64px" viewBox="0 0 32 32" xmlns="http://www.w3.org/2000/svg">
<path d="m31.845 15.948c0 9.2723-6.6429 15.915-15.915 15.915-9.2723 0-15.915-6.6429-15.915-15.915 0-9.2723 6.6429-15.915 15.915-15.915 9.2723 0 15.915 6.6429 15.915 15.915zm-15.625-7.9149-0.20538-2.641e-4c-1.7102 0-3.4205 0.056529-3.4205 0.056529-2.498 0-4.523 2.025-4.523 4.523 0 0-0.051916 1.4685-0.056242 3.0448l-2.863e-4 0.2061c0 1.7649 0.056529 3.5901 0.056529 3.5901 0 2.498 2.025 4.523 4.523 4.523 0 0 1.599 0.05653 3.2509 0.05653 1.7649 0 3.6466-0.05653 3.6466-0.05653 2.498 0 4.4664-1.9685 4.4664-4.4664 0 0 0.05653-1.8047 0.05653-3.5336l-1e-3 -0.40573c-0.0077-1.5512-0.05554-3.0148-0.05554-3.0148 0-2.498-1.9685-4.4664-4.4664-4.4664 0 0-1.6283-0.052097-3.2716-0.056264zm-0.20538 1.4397c1.4024 0 3.2006 0.046379 3.2006 0.046379 2.0484 0 3.3131 1.2647 3.3131 3.313 0 0 0.04638 1.7674 0.04638 3.1542 0 1.4177-0.04638 3.2469-0.04638 3.2469 0 2.0483-1.2647 3.313-3.3131 3.313 0 0-1.5902 0.03897-2.9699 0.04547l-0.36972 9.12e-4c-1.3545 0-3.005-0.04638-3.005-0.04638-2.0483 0-3.3696-1.3213-3.3696-3.3696 0 0-0.046379-1.8359-0.046379-3.2831 0-1.3545 0.046379-3.0615 0.046379-3.0615 0-2.0483 1.3213-3.313 3.3696-3.313 0 0 1.7416-0.046379 3.144-0.046379zm-3.5e-5 2.462c-2.2633 0-4.098 1.8347-4.098 4.098 0 2.2633 1.8347 4.098 4.098 4.098s4.098-1.8347 4.098-4.098-1.8347-4.098-4.098-4.098zm0 1.4314c1.4728 0 2.6667 1.1939 2.6667 2.6667s-1.1939 2.6667-2.6667 2.6667c-1.4727 0-2.6667-1.1939-2.6667-2.6667s1.1939-2.6667 2.6667-2.6667zm4.2941-2.5686c-0.54685 0-0.9902 0.44553-0.9902 0.9951s0.44335 0.99506 0.9902 0.99506c0.54686 0 0.99017-0.4455 0.99017-0.99506 0-0.5496-0.44331-0.9951-0.99017-0.9951z" fill="#fff"/>
</svg>
